<svg width="15" height="17" viewBox="0 0 15 17" fill="none" xmlns="http://www.w3.org/2000/svg">
<path d="M5.45312 6.81819V12.2727C5.45312 12.4536 5.52496 12.627 5.65283 12.7549C5.78069 12.8827 5.95411 12.9545 6.13494 12.9545C6.31577 12.9545 6.4892 12.8827 6.61706 12.7549C6.74493 12.627 6.81676 12.4536 6.81676 12.2727V6.81819C6.81676 6.63736 6.74493 6.46393 6.61706 6.33607C6.4892 6.2082 6.31577 6.13637 6.13494 6.13637C5.95411 6.13637 5.78069 6.2082 5.65283 6.33607C5.52496 6.46393 5.45312 6.63736 5.45312 6.81819Z" fill="#E75151"/>
<path d="M8.86151 6.13637C9.04234 6.13637 9.21576 6.2082 9.34362 6.33607C9.47149 6.46393 9.54332 6.63736 9.54332 6.81819V12.2727C9.54332 12.4536 9.47149 12.627 9.34362 12.7549C9.21576 12.8827 9.04234 12.9545 8.86151 12.9545C8.68068 12.9545 8.50725 12.8827 8.37939 12.7549C8.25152 12.627 8.17969 12.4536 8.17969 12.2727V6.81819C8.17969 6.63736 8.25152 6.46393 8.37939 6.33607C8.50725 6.2082 8.68068 6.13637 8.86151 6.13637Z" fill="#E75151"/>
<path d="M10.2273 2.72727H14.3182C14.499 2.72727 14.6724 2.79911 14.8003 2.92697C14.9282 3.05484 15 3.22826 15 3.40909C15 3.58992 14.9282 3.76334 14.8003 3.89121C14.6724 4.01907 14.499 4.09091 14.3182 4.09091H13.5641L12.5386 13.3309C12.446 14.1648 12.0491 14.9353 11.4239 15.4948C10.7987 16.0544 9.98905 16.3637 9.15 16.3636H5.85C5.01095 16.3637 4.20134 16.0544 3.57612 15.4948C2.9509 14.9353 2.55399 14.1648 2.46136 13.3309L1.43455 4.09091H0.681818C0.500989 4.09091 0.327566 4.01907 0.1997 3.89121C0.0718343 3.76334 0 3.58992 0 3.40909C0 3.22826 0.0718343 3.05484 0.1997 2.92697C0.327566 2.79911 0.500989 2.72727 0.681818 2.72727H4.77273C4.77273 2.00396 5.06006 1.31026 5.57153 0.7988C6.08299 0.287337 6.77668 0 7.5 0C8.22332 0 8.91701 0.287337 9.42847 0.7988C9.93994 1.31026 10.2273 2.00396 10.2273 2.72727ZM7.5 1.36364C7.13834 1.36364 6.7915 1.5073 6.53576 1.76304C6.28003 2.01877 6.13636 2.36561 6.13636 2.72727H8.86364C8.86364 2.36561 8.71997 2.01877 8.46424 1.76304C8.2085 1.5073 7.86166 1.36364 7.5 1.36364ZM2.80773 4.09091L3.81682 13.1809C3.87252 13.6812 4.11072 14.1433 4.48584 14.4789C4.86096 14.8145 5.34666 15.0001 5.85 15H9.15C9.65311 14.9997 10.1385 14.8141 10.5133 14.4785C10.8881 14.1429 11.1261 13.6809 11.1818 13.1809L12.1936 4.09091H2.80909H2.80773Z" fill="#E75151"/>
</svg>
